<svg t="1641131752465" class="icon" viewBox="0 0 1024 1024" version="1.1" xmlns="http://www.w3.org/2000/svg" p-id="12431" width="200" height="200"><path d="M426.666667 170.666667H170.666667c-47.36 0-85.333333 37.973333-85.333334 85.333333v512c0 46.805333 38.528 85.333333 85.333334 85.333333h682.666666c46.805333 0 85.333333-38.528 85.333334-85.333333V341.333333a85.333333 85.333333 0 0 0-85.333334-85.333333h-341.333333l-85.333333-85.333333z" fill="#E57373" p-id="12432"></path><path d="M792.533333 474.154667h-109.909333V419.2h109.909333m164.864 54.954667h-109.909333V419.2l-54.954667-54.954667h-109.909333L627.626667 419.2v54.954667h-109.952c-30.506667 0-54.954667 24.448-54.954667 54.954666v302.293334a54.954667 54.954667 0 0 0 54.954667 54.954666H957.44a54.954667 54.954667 0 0 0 54.954667-54.954666V529.066667c0-30.506667-24.746667-54.954667-54.954667-54.954667z" fill="#FFCDD2" p-id="12433"></path></svg>